<?xml version="1.0" encoding="UTF-8"?>
<svg version="1.1" xmlns="http://www.w3.org/2000/svg" width="204" height="192">
<path d="M0 0 C67.32 0 134.64 0 204 0 C204 63.36 204 126.72 204 192 C136.68 192 69.36 192 0 192 C0 128.64 0 65.28 0 0 Z " fill="#FEFEFE" transform="translate(0,0)"/>
<path d="M0 0 C0.66 0.33 1.32 0.66 2 1 C0.02 3.97 -1.96 6.94 -4 10 C-1.525 10.495 -1.525 10.495 1 11 C3.8125 12.5625 3.8125 12.5625 6 14 C4.9644317 17.31381855 3.48601582 19.80018339 1.3828125 22.51171875 C-2.41138849 27.49965214 -5.96179538 32.64100295 -9.5 37.8125 C-10.45712891 39.19405273 -10.45712891 39.19405273 -11.43359375 40.60351562 C-15.71849355 46.86437638 -19.49461223 53.27236448 -23 60 C-25.74259627 57.40316607 -27.05617627 55.01666454 -28.625 51.5625 C-31.36338915 45.94442889 -34.64393053 41.23082635 -38.4765625 36.3125 C-41.50183095 32.40516533 -44.27729419 28.33022059 -47.0625 24.25 C-47.55194092 23.53360352 -48.04138184 22.81720703 -48.5456543 22.07910156 C-49.69919363 20.38749155 -50.84991339 18.69395934 -52 17 C-51.67 16.34 -51.34 15.68 -51 15 C-49.576875 15.7115625 -49.576875 15.7115625 -48.125 16.4375 C-42.67727109 18.79447659 -36.87242088 19 -31 19 C-28.60054094 17.39745219 -26.26976092 15.75706265 -23.9375 14.0625 C-18.50253547 10.22382333 -14.87946286 8.32309058 -8.09765625 8.40234375 C-5.08816736 7.82510473 -4.17676893 6.34961293 -2.375 3.9375 C-1.55223894 2.64426507 -0.74928891 1.33714565 0 0 Z " fill="#E71C48" transform="translate(124,41)"/>
<path d="M0 0 C8.25 0 16.5 0 25 0 C23.3718248 4.07043801 22.18519491 6.3333206 19.625 9.6875 C15.93709893 14.64709109 12.47219439 19.72053479 9.0625 24.875 C5.46622123 30.30669114 1.84601511 35.71539407 -1.875 41.0625 C-2.58914062 42.09761719 -3.30328125 43.13273437 -4.0390625 44.19921875 C-5.23589512 45.90863905 -6.45476136 47.60323368 -7.7109375 49.26953125 C-15.59939855 60.06110613 -17.76484714 73.00324225 -19 86 C-19.33 86 -19.66 86 -20 86 C-20.51705921 74.55288352 -19.72101734 65.92879091 -14.1875 55.625 C-12.71766831 53.09210786 -12.71766831 53.09210786 -13.57983398 50.60205078 C-14.11230969 47.30447609 -13.44521758 46.42114644 -11.53515625 43.7421875 C-10.98561279 42.95642334 -10.43606934 42.17065918 -9.86987305 41.36108398 C-9.27343994 40.54067627 -8.67700684 39.72026855 -8.0625 38.875 C-7.46800049 38.03203369 -6.87350098 37.18906738 -6.26098633 36.32055664 C-2.3538155 30.80028016 1.62628119 25.32691497 5.70703125 19.93359375 C7.18528743 18.11058512 7.18528743 18.11058512 7 16 C2.545 14.02 2.545 14.02 -2 12 C-0.6302836 8.00499382 1.25722422 5.19990508 4 2 C2.68 1.34 1.36 0.68 0 0 Z " fill="#F7F5F5" transform="translate(122,39)"/>
<path d="M0 0 C4.11363138 3.84631959 7.24309137 7.95651603 10.375 12.625 C11.09453857 13.69113525 11.09453857 13.69113525 11.82861328 14.77880859 C12.78561493 16.20096129 13.73994903 17.62491323 14.69140625 19.05078125 C15.80727057 20.71291945 16.94799604 22.35832268 18.09375 24 C22.77891453 30.904453 25.5546067 38.06762917 28 46 C28.17958252 46.56162842 28.35916504 47.12325684 28.54418945 47.7019043 C29.21115571 51.06460025 29.20353293 54.42027503 29.23828125 57.8359375 C29.246353 58.59290924 29.25442474 59.34988098 29.26274109 60.12979126 C29.27654217 61.72843155 29.28728202 63.32710082 29.29516602 64.92578125 C29.30669729 66.55510128 29.32716744 68.1843832 29.35668945 69.81347656 C29.39946388 72.17538964 29.41554602 74.53618471 29.42578125 76.8984375 C29.44328934 77.62050385 29.46079742 78.34257019 29.47883606 79.08651733 C29.45705707 84.20349178 28.23853368 87.07541382 25 91 C21.42306541 93.38462306 18.08643566 93.86917653 13.9375 94.5625 C8.82260234 95.29507256 8.82260234 95.29507256 4 97 C4 97.66 4 98.32 4 99 C9.30039859 100.66554027 14.47293087 102.27275406 20 103 C20 103.33 20 103.66 20 104 C12.42228293 104.50146657 7.54216759 103.94998798 1 100 C1.33 98.35 1.66 96.7 2 95 C3.64502609 94.53877773 5.29107697 94.0812105 6.9375 93.625 C7.9378125 93.3465625 8.938125 93.068125 9.96875 92.78125 C13.29793359 91.92321299 16.62670289 91.31610687 20.02734375 90.8203125 C23.05220765 89.56244831 24.2037865 87.70798186 26 85 C26.61177188 81.70915889 26.61177188 81.70915889 26.53125 78.109375 C26.53684433 77.45175171 26.54243866 76.79412842 26.54820251 76.11657715 C26.55659589 73.99350733 26.53154522 71.87282875 26.5 69.75 C26.49412872 69.02824585 26.48825745 68.3064917 26.48220825 67.56286621 C26.32443227 51.10928117 24.50679291 37.87713178 15 24 C14.08072562 22.63932532 13.16145503 21.27864806 12.2421875 19.91796875 C10.36283784 17.1539244 8.46598791 14.4033696 6.55078125 11.6640625 C5.70037063 10.44281291 4.8501038 9.22146318 4 8 C3.59700684 7.42604492 3.19401367 6.85208984 2.77880859 6.26074219 C0 2.2275 0 2.2275 0 0 Z " fill="#5E5E5F" transform="translate(71,63)"/>
<path d="M0 0 C5.61 0 11.22 0 17 0 C15.3718248 4.07043801 14.18519491 6.3333206 11.625 9.6875 C7.93709893 14.64709109 4.47219439 19.72053479 1.0625 24.875 C-2.53377877 30.30669114 -6.15398489 35.71539407 -9.875 41.0625 C-10.58914062 42.09761719 -11.30328125 43.13273437 -12.0390625 44.19921875 C-13.23589512 45.90863905 -14.45476136 47.60323368 -15.7109375 49.26953125 C-23.59939855 60.06110613 -25.76484714 73.00324225 -27 86 C-27.33 86 -27.66 86 -28 86 C-28.91913141 65.65145188 -21.14753313 50.75598385 -9.015625 34.68359375 C-6.84774708 31.79729117 -4.79453033 28.84986517 -2.75 25.875 C2.76486025 17.86831147 8.38337977 9.93549559 14 2 C7.07 1.505 7.07 1.505 0 1 C0 0.67 0 0.34 0 0 Z " fill="#3F3F40" transform="translate(130,39)"/>
<path d="M0 0 C0.33 0.99 0.66 1.98 1 3 C0.13891602 4.71069336 0.13891602 4.71069336 -1.24609375 6.58984375 C-2.0026123 7.63507202 -2.0026123 7.63507202 -2.77441406 8.70141602 C-3.32323242 9.43932373 -3.87205078 10.17723145 -4.4375 10.9375 C-5.54684816 12.46522063 -6.65491444 13.99387289 -7.76171875 15.5234375 C-8.31134277 16.27850586 -8.8609668 17.03357422 -9.42724609 17.81152344 C-12.75800892 22.44625768 -15.87279589 27.22641491 -19 32 C-19.99 31.67 -20.98 31.34 -22 31 C-20.3830626 26.1585886 -17.65549371 22.32424986 -14.75 18.1875 C-14.25564453 17.47770996 -13.76128906 16.76791992 -13.25195312 16.03662109 C-3.82547567 2.55031711 -3.82547567 2.55031711 0 0 Z " fill="#F2EBED" transform="translate(130,58)"/>
<path d="M0 0 C0.33 0 0.66 0 1 0 C1.09911652 4.89292532 1.17158399 9.78526221 1.21972656 14.67895508 C1.23980207 16.34247013 1.26706876 18.00591496 1.30175781 19.66918945 C1.35045766 22.0647924 1.37300856 24.45945992 1.390625 26.85546875 C1.41127014 27.5952446 1.43191528 28.33502045 1.45318604 29.09721375 C1.45478037 32.79302111 1.11698287 34.81799828 -0.90112305 37.95776367 C-3.10816463 40.10524569 -4.0751092 40.68945517 -7.0625 41.125 C-10.80200448 41.77318078 -14.40400083 42.60665487 -18.0625 43.625 C-19.47208984 44.01558594 -19.47208984 44.01558594 -20.91015625 44.4140625 C-21.94462891 44.70410156 -21.94462891 44.70410156 -23 45 C-23 45.66 -23 46.32 -23 47 C-17.69960141 48.66554027 -12.52706913 50.27275406 -7 51 C-7 51.33 -7 51.66 -7 52 C-14.57771707 52.50146657 -19.45783241 51.94998798 -26 48 C-25.67 46.35 -25.34 44.7 -25 43 C-23.35497391 42.53877773 -21.70892303 42.0812105 -20.0625 41.625 C-19.0621875 41.3465625 -18.061875 41.068125 -17.03125 40.78125 C-13.70206641 39.92321299 -10.37329711 39.31610687 -6.97265625 38.8203125 C-3.92238845 37.5518843 -2.79616116 35.74886171 -1 33 C-0.59022188 30.29997269 -0.39538612 27.99016509 -0.390625 25.29296875 C-0.37408875 24.56757401 -0.35755249 23.84217926 -0.34051514 23.09480286 C-0.29217523 20.79228127 -0.27069715 18.49041934 -0.25 16.1875 C-0.22182832 14.62040977 -0.1918992 13.05335008 -0.16015625 11.48632812 C-0.08642109 7.65760645 -0.03676179 3.82924794 0 0 Z " fill="#2C2C2E" transform="translate(98,115)"/>
<path d="M0 0 C0.33 0.99 0.66 1.98 1 3 C-0.6953125 5.609375 -0.6953125 5.609375 -3.125 8.75 C-11.28284012 19.91901731 -13.7122593 32.44989266 -15 46 C-15.33 46 -15.66 46 -16 46 C-16.75338402 29.32091482 -12.37218704 16.88717956 -3 3 C-2.02429052 1.97628568 -1.02978712 0.96929793 0 0 Z " fill="#404041" transform="translate(118,79)"/>
<path d="M0 0 C-9.27646214 4.35425774 -17.78977283 4.13167696 -27.9375 4.0625 C-29.19369141 4.05798828 -30.44988281 4.05347656 -31.74414062 4.04882812 C-34.82947663 4.03709681 -37.91471316 4.020681 -41 4 C-41 3.67 -41 3.34 -41 3 C-36.04701493 1.75143501 -31.07648318 1.73818803 -26 1.5625 C-18.62969557 1.27316855 -11.55523801 0.6784238 -4.30078125 -0.6953125 C-2 -1 -2 -1 0 0 Z " fill="#A1A1A1" transform="translate(127,164)"/>
<path d="M0 0 C0.33 0 0.66 0 1 0 C1 8.58 1 17.16 1 26 C0.34 26.33 -0.32 26.66 -1 27 C-2.31514102 21.98142185 -2.18382471 16.96158481 -2.1875 11.8125 C-2.20586914 10.44061523 -2.20586914 10.44061523 -2.22460938 9.04101562 C-2.22654297 8.16767578 -2.22847656 7.29433594 -2.23046875 6.39453125 C-2.23457764 5.59893799 -2.23868652 4.80334473 -2.24291992 3.98364258 C-2 2 -2 2 0 0 Z " fill="#D0D0D0" transform="translate(103,115)"/>
<path d="M0 0 C0 0.66 0 1.32 0 2 C-1.98 2.66 -3.96 3.32 -6 4 C-6 4.66 -6 5.32 -6 6 C-0.69960141 7.66554027 4.47293087 9.27275406 10 10 C10 10.33 10 10.66 10 11 C2.42228293 11.50146657 -2.45783241 10.94998798 -9 7 C-8.67 5.35 -8.34 3.7 -8 2 C-2.25 0 -2.25 0 0 0 Z " fill="#59595A" transform="translate(81,156)"/>
<path d="M0 0 C1 3 1 3 0.1796875 4.7890625 C-3.37546468 9.79182156 -3.37546468 9.79182156 -6.8125 10.9375 C-7.8953125 10.9684375 -7.8953125 10.9684375 -9 11 C-6.51545911 6.21495828 -4.52048157 3.13922331 0 0 Z " fill="#EEE4E6" transform="translate(130,58)"/>
<path d="M0 0 C1.30579112 2.16499197 2.05647429 3.45230596 1.79296875 6.0078125 C1.59316406 6.70648438 1.39335938 7.40515625 1.1875 8.125 C-0.08468832 13.0578076 -0.59782247 17.93044644 -1 23 C-1.33 23 -1.66 23 -2 23 C-2.05447822 20.47886908 -2.09389852 17.9589415 -2.125 15.4375 C-2.14175781 14.73302734 -2.15851563 14.02855469 -2.17578125 13.30273438 C-2.22022044 8.48108178 -1.52768004 4.57702562 0 0 Z " fill="#757575" transform="translate(104,102)"/>
<path d="M0 0 C1 4 1 4 -0.21484375 6.359375 C-0.78332031 7.14828125 -1.35179688 7.9371875 -1.9375 8.75 C-2.50339844 9.54921875 -3.06929688 10.3484375 -3.65234375 11.171875 C-4.09707031 11.77515625 -4.54179688 12.3784375 -5 13 C-5.66 12.01 -6.32 11.02 -7 10 C-3.535 5.05 -3.535 5.05 0 0 Z " fill="#515151" transform="translate(125,68)"/>
</svg>
