<?xml version="1.0" encoding="UTF-8"?>
<svg version="1.1" xmlns="http://www.w3.org/2000/svg" width="259" height="194">
<path d="M0 0 C85.47 0 170.94 0 259 0 C259 64.02 259 128.04 259 194 C173.53 194 88.06 194 0 194 C0 129.98 0 65.96 0 0 Z " fill="#FEFEFE" transform="translate(0,0)"/>
<path d="M0 0 C2.91961915 0.82348232 4.02295682 1.9987826 5.5234375 4.609375 C11.13366179 17.36424391 11.31732968 32.70515855 6.28515625 45.65234375 C3.73587978 51.25227794 1.36684466 54.94632658 -3.4375 58.8125 C-6.7623983 61.80323767 -7.82202238 63.88001211 -8.13671875 68.24609375 C-8.21901585 72.75119604 -7.95454475 77.20076562 -7.5625 81.6875 C-6.9334375 81.70167969 -6.304375 81.71585937 -5.65625 81.73046875 C0.79988933 82.0902235 5.5811221 83.26280013 10.4375 87.6875 C16.45075147 95.49575191 17.17751019 101.8876508 16.4375 111.6875 C15.00828329 117.67126877 12.09698255 121.60105835 7.4140625 125.49609375 C4.87580508 127.02607105 2.26499482 127.83128678 -0.5625 128.6875 C-0.3459375 129.79867187 -0.129375 130.90984375 0.09375 132.0546875 C4.2574905 153.99392243 4.2574905 153.99392243 -0.28515625 161.99609375 C-2.98882335 165.57617893 -6.39739528 167.29913176 -10.5625 168.6875 C-16.20954736 169.18457055 -21.00547816 169.47966901 -26.125 166.875 C-26.929375 166.153125 -27.73375 165.43125 -28.5625 164.6875 C-29.14 164.213125 -29.7175 163.73875 -30.3125 163.25 C-32.62918287 160.35414642 -33.43534618 157.50491738 -34 153.875 C-33.38104207 149.36544933 -31.8126581 145.92221792 -28.5625 142.6875 C-25.71146997 141.70202381 -23.63415418 141.6875 -20.5625 141.6875 C-20.5625 142.3475 -20.5625 143.0075 -20.5625 143.6875 C-19.634375 144.0896875 -19.634375 144.0896875 -18.6875 144.5 C-16.5625 145.6875 -16.5625 145.6875 -14.5625 148.6875 C-13.8906493 155.74193235 -13.8906493 155.74193235 -16.25 159.0625 C-18.62205194 160.72934731 -20.81771995 161.77257332 -23.5625 162.6875 C-19.2288906 165.13863654 -15.4522839 165.38240863 -10.5625 164.6875 C-6.51642042 162.62767767 -4.0818647 160.97378114 -2.5625 156.6875 C-2.29621046 153.78756513 -2.32744528 150.90975452 -2.375 148 C-2.38466797 146.7936792 -2.38466797 146.7936792 -2.39453125 145.56298828 C-2.46388626 140.2128991 -2.77762431 134.98541093 -3.5625 129.6875 C-4.86960937 129.79191406 -4.86960937 129.79191406 -6.203125 129.8984375 C-17.14902933 130.39597861 -25.25581121 127.85580638 -33.5 120.5 C-40.67999358 112.65291655 -42.9483721 102.67759591 -42.83203125 92.38671875 C-41.91364879 79.78225224 -34.17351676 69.90424742 -25.44140625 61.2734375 C-23.5625 59.6875 -23.5625 59.6875 -21.08984375 58.1640625 C-18.46389956 56.50001749 -16.50266532 55.12502872 -14.5625 52.6875 C-14.02421321 48.23604971 -14.86265939 44.0900434 -15.5625 39.6875 C-16.43374643 25.76399579 -13.99993511 13.57335801 -5.0625 2.625 C-2.5625 0.6875 -2.5625 0.6875 0 0 Z " fill="#070707" transform="translate(135.5625,12.3125)"/>
<path d="M0 0 C3.03579786 5.44349961 4.30173141 10.84760628 3 17 C-0.22046819 21.32477968 -4.93702283 24.33281825 -9.20117188 27.55029297 C-17.08121419 33.90095682 -23.01206237 43.0422397 -25 53 C-26.04540931 64.58910896 -24.13307862 74.06307472 -16.9375 83.375 C-9.30137114 91.25798648 -0.33866754 93.64484846 10.359375 93.9921875 C11.23078125 93.99476563 12.1021875 93.99734375 13 94 C14.80071934 100.07742776 15.27283104 105.88495227 15.375 112.1875 C15.40078125 112.9594873 15.4265625 113.73147461 15.453125 114.52685547 C15.47140517 119.8292476 14.47593255 122.77876583 11 127 C7.26817998 130.19870288 3.90372916 130.44723226 -0.83984375 130.3046875 C-3.73641474 129.89612957 -5.70493784 128.77682232 -8 127 C-5 125 -5 125 -2.375 124 C0.15139938 123.23952738 0.15139938 123.23952738 1 121 C1.39874436 116.95815076 1.39874436 116.95815076 1 113 C-1.29199403 110.03949126 -1.29199403 110.03949126 -4 108 C-4.33 107.67 -4.66 107.34 -5 107 C-6.35681604 107.27908251 -7.71048395 107.57352129 -9.0625 107.875 C-12.2299912 108.29867717 -13.5212436 108.31135906 -16.234375 106.546875 C-17.58835576 105.2946973 -18.90542351 104.00100084 -20.17578125 102.6640625 C-21.85687066 100.85474264 -21.85687066 100.85474264 -24.046875 100.5390625 C-26.89678542 99.75248722 -27.47231785 98.26637932 -28.9375 95.75 C-36.17597439 82.86734811 -39.50019575 69.75577465 -39 55 C-38.34 55.33 -37.68 55.66 -37 56 C-36.67 54.35 -36.34 52.7 -36 51 C-36.66 51 -37.32 51 -38 51 C-37.47462276 45.9697924 -36.89405214 40.98114761 -36 36 C-35.34 36 -34.68 36 -34 36 C-33.75121094 35.11699219 -33.50242187 34.23398438 -33.24609375 33.32421875 C-31.94207765 29.84547988 -30.42848975 27.65433127 -28.0625 24.8125 C-27.37285156 23.97332031 -26.68320313 23.13414063 -25.97265625 22.26953125 C-22.43792961 18.20284575 -22.43792961 18.20284575 -21 17 C-20.01 17 -19.02 17 -18 17 C-17.74992187 16.41347656 -17.49984375 15.82695313 -17.2421875 15.22265625 C-15.83560368 12.70584431 -14.32306294 11.29133799 -12.125 9.4375 C-11.44695312 8.85871094 -10.76890625 8.27992187 -10.0703125 7.68359375 C-9.38710937 7.12800781 -8.70390625 6.57242188 -8 6 C-6.97519531 5.15115234 -6.97519531 5.15115234 -5.9296875 4.28515625 C-4 3 -4 3 -1 3 C-0.67 2.01 -0.34 1.02 0 0 Z " fill="#F6F6F6" transform="translate(119,48)"/>
<path d="M0 0 C3.97132519 0.32199934 6.70665213 1.83579997 10 4 C8.75 6 8.75 6 7 8 C5.68 8 4.36 8 3 8 C2.67 8.66 2.34 9.32 2 10 C4.31 10.33 6.62 10.66 9 11 C9.33 11.99 9.66 12.98 10 14 C10.66 14.165 11.32 14.33 12 14.5 C12.99 14.7475 12.99 14.7475 14 15 C14.495 16.485 14.495 16.485 15 18 C14.67 18.66 14.34 19.32 14 20 C17.32534757 21.10844919 19.62182575 20.84454356 23 20 C23.495 21.485 23.495 21.485 24 23 C23.34 23 22.68 23 22 23 C21.67 23.66 21.34 24.32 21 25 C20.34 24.34 19.68 23.68 19 23 C17.02 23.99 17.02 23.99 15 25 C15 25.66 15 26.32 15 27 C15.99 27.33 16.98 27.66 18 28 C18.33 27.34 18.66 26.68 19 26 C20.32 26.66 21.64 27.32 23 28 C23 28.66 23 29.32 23 30 C22.34 30 21.68 30 21 30 C21 30.66 21 31.32 21 32 C21.99 32.33 22.98 32.66 24 33 C24 33.66 24 34.32 24 35 C23.34 35 22.68 35 22 35 C22 34.34 22 33.68 22 33 C20.02 33.495 20.02 33.495 18 34 C18 34.66 18 35.32 18 36 C19.3921875 36.0309375 19.3921875 36.0309375 20.8125 36.0625 C21.864375 36.371875 22.91625 36.68125 24 37 C25.75 40.4375 25.75 40.4375 27 44 C27.66 44.66 28.32 45.32 29 46 C31 49 31 49 30.625 51.1875 C30.41875 51.785625 30.2125 52.38375 30 53 C29.01 53 28.02 53 27 53 C26.52691406 53.89460938 26.05382812 54.78921875 25.56640625 55.7109375 C18.2801479 69.18060853 10.18606229 78.63040814 -4 85 C-7.42578125 85.71484375 -7.42578125 85.71484375 -10 86 C-10.50509639 82.91747911 -11.00317999 79.83386475 -11.5 76.75 C-11.64308594 75.87730469 -11.78617188 75.00460938 -11.93359375 74.10546875 C-12.06894531 73.26113281 -12.20429688 72.41679687 -12.34375 71.546875 C-12.46943359 70.77182617 -12.59511719 69.99677734 -12.72460938 69.19824219 C-13 67 -13 67 -13 63 C-12.40832031 62.70867187 -11.81664062 62.41734375 -11.20703125 62.1171875 C-4.97047817 58.881912 -0.59072401 55.99373262 2.1015625 49.234375 C4.10640577 42.01693922 4.39730043 33.75497831 1 26.9375 C-3.10614523 20.74952764 -8.36165005 18.1616147 -15.5 16.6875 C-16.985 16.460625 -18.47 16.23375 -20 16 C-20.33 11.71 -20.66 7.42 -21 3 C-17.22738826 1.11369413 -12.30130084 2.01369628 -8.12109375 2.12695312 C-6.08050725 2.15670439 -4.03903415 2.08495976 -2 2 C-1.34 1.34 -0.68 0.68 0 0 Z " fill="#F8F8F8" transform="translate(148,78)"/>
<path d="M0 0 C0.66 5.28 1.32 10.56 2 16 C0.7625 16.721875 -0.475 17.44375 -1.75 18.1875 C-6.56937535 21.20173829 -9.80290073 24.72137591 -12 30 C-12.67002222 35.59390643 -12.75476125 40.46352174 -10.25 45.5625 C-8.27601696 47.70098163 -6.44358912 49.42912128 -4 51 C-3.67 50.67 -3.34 50.34 -3 50 C-3.639375 49.401875 -4.27875 48.80375 -4.9375 48.1875 C-7.59670554 45.36713048 -7.95074306 43.52212356 -8.3125 39.6875 C-7.87178519 34.48706528 -5.75013973 31.640756 -2 28.125 C0 27 0 27 4 27 C4.50666472 31.18672147 5.00413918 35.37448633 5.5 39.5625 C5.64308594 40.74392578 5.78617188 41.92535156 5.93359375 43.14257812 C6.59866722 48.79570264 7.20065423 54.30643621 7 60 C1.0017402 61.99941993 -4.28479897 61.65711574 -10.0625 59.0625 C-16.42051396 55.57104772 -21.15064163 50.54460355 -24.5 44.125 C-26.14480683 33.84495734 -24.73887482 26.82086315 -19 18 C-5.08972504 0 -5.08972504 0 0 0 Z " fill="#F6F6F6" transform="translate(124,79)"/>
<path d="M0 0 C2.475 0.99 2.475 0.99 5 2 C5 2.66 5 3.32 5 4 C4.34 4 3.68 4 3 4 C3 4.66 3 5.32 3 6 C3.99 6.33 4.98 6.66 6 7 C6 7.66 6 8.32 6 9 C5.34 9 4.68 9 4 9 C4 8.34 4 7.68 4 7 C2.68 7.33 1.36 7.66 0 8 C0 8.66 0 9.32 0 10 C0.928125 10.020625 1.85625 10.04125 2.8125 10.0625 C3.864375 10.371875 4.91625 10.68125 6 11 C7.75 14.4375 7.75 14.4375 9 18 C9.66 18.66 10.32 19.32 11 20 C13 23 13 23 12.625 25.1875 C12.41875 25.785625 12.2125 26.38375 12 27 C11.01 27 10.02 27 9 27 C8.52691406 27.89460938 8.05382812 28.78921875 7.56640625 29.7109375 C0.2801479 43.18060853 -7.81393771 52.63040814 -22 59 C-25.42578125 59.71484375 -25.42578125 59.71484375 -28 60 C-29.19088986 54.61972975 -30.2919519 49.54708616 -30 44 C-29.67 44.66 -29.34 45.32 -29 46 C-27.39125 44.9790625 -27.39125 44.9790625 -25.75 43.9375 C-22.30953757 41.93981214 -22.30953757 41.93981214 -19.75 42.4375 C-18.88375 42.7159375 -18.88375 42.7159375 -18 43 C-16.22809091 41.64555699 -16.22809091 41.64555699 -15 40 C-16.98 40.495 -16.98 40.495 -19 41 C-18.34 39.35 -17.68 37.7 -17 36 C-16.01 36 -15.02 36 -14 36 C-13.731875 35.443125 -13.46375 34.88625 -13.1875 34.3125 C-12.795625 33.549375 -12.40375 32.78625 -12 32 C-11.649375 31.0925 -11.29875 30.185 -10.9375 29.25 C-9 27 -9 27 -6.8046875 26.68359375 C-4.51649518 26.68718026 -2.27748826 26.78514262 0 27 C-0.33 28.65 -0.66 30.3 -1 32 C0.74671337 30.48111881 1.89123821 29.23306099 2.875 27.125 C3.0630374 23.92836418 1.98605476 22.44946754 0 20 C-2.56275519 19.32573605 -2.56275519 19.32573605 -5 19 C-5.24942657 16.75215576 -5.47383488 14.50152494 -5.6875 12.25 C-5.81511719 10.99703125 -5.94273437 9.7440625 -6.07421875 8.453125 C-5.99485632 4.76068358 -5.53835868 3.58403608 -3 1 C-2.01 1.33 -1.02 1.66 0 2 C0 1.34 0 0.68 0 0 Z " fill="#E7E7E7" transform="translate(166,104)"/>
<path d="M0 0 C3.97132519 0.32199934 6.70665213 1.83579997 10 4 C8.75 6 8.75 6 7 8 C5.68 8 4.36 8 3 8 C2.67 8.66 2.34 9.32 2 10 C4.31 10.33 6.62 10.66 9 11 C9.33 11.99 9.66 12.98 10 14 C10.66 14.165 11.32 14.33 12 14.5 C12.99 14.7475 12.99 14.7475 14 15 C14.495 16.485 14.495 16.485 15 18 C14.67 18.66 14.34 19.32 14 20 C17.32534757 21.10844919 19.62182575 20.84454356 23 20 C23.495 21.485 23.495 21.485 24 23 C23.34 23 22.68 23 22 23 C21.67 23.66 21.34 24.32 21 25 C20.34 24.34 19.68 23.68 19 23 C16.53199953 24.15173355 14.95216435 25.04783565 13 27 C9 22.25 9 22.25 9 20 C8.34 20 7.68 20 7 20 C7 19.34 7 18.68 7 18 C5.68 17.67 4.36 17.34 3 17 C3 16.34 3 15.68 3 15 C-0.63 14.01 -4.26 13.02 -8 12 C-8 12.66 -8 13.32 -8 14 C-7.01 14.66 -6.02 15.32 -5 16 C-6.74906659 16.19601608 -8.49931846 16.38147403 -10.25 16.5625 C-11.22453125 16.66691406 -12.1990625 16.77132812 -13.203125 16.87890625 C-16 17 -16 17 -20 16 C-20.33 11.71 -20.66 7.42 -21 3 C-17.22738826 1.11369413 -12.30130084 2.01369628 -8.12109375 2.12695312 C-6.08050725 2.15670439 -4.03903415 2.08495976 -2 2 C-1.34 1.34 -0.68 0.68 0 0 Z " fill="#B9B9B9" transform="translate(148,78)"/>
<path d="M0 0 C0.33 0 0.66 0 1 0 C1.33 2.97 1.66 5.94 2 9 C1.01 9.33 0.02 9.66 -1 10 C-1.33 10.66 -1.66 11.32 -2 12 C-0.35 11.67 1.3 11.34 3 11 C3.33 12.32 3.66 13.64 4 15 C3.01 15.33 2.02 15.66 1 16 C1 16.33 1 16.66 1 17 C2.32 16.67 3.64 16.34 5 16 C5.08636719 16.67546875 5.17273438 17.3509375 5.26171875 18.046875 C6.06502554 23.84351117 6.06502554 23.84351117 9.5 28.375 C10.325 28.91125 11.15 29.4475 12 30 C13.125 32.0625 13.125 32.0625 14 34 C14.53625 34.515625 15.0725 35.03125 15.625 35.5625 C17 37 17 37 17 40 C17.66 40.66 18.32 41.32 19 42 C20.9931567 42.02375926 20.9931567 42.02375926 23.125 41.625 C24.40375 41.41875 25.6825 41.2125 27 41 C26.67 41.99 26.34 42.98 26 44 C22.59929684 44.82926983 19.49957529 45.30409415 16 45 C13.55284545 43.4529006 11.76390739 41.77336491 9.7890625 39.6640625 C8.14165066 37.85189705 8.14165066 37.85189705 5.95703125 37.5390625 C3.10359436 36.75308587 2.52933511 35.2692182 1.0625 32.75 C-3.62634033 24.49097667 -8.20455363 14.9096466 -8.0625 5.25 C-8.05347656 4.45078125 -8.04445313 3.6515625 -8.03515625 2.828125 C-8.02355469 2.22484375 -8.01195313 1.6215625 -8 1 C-7.34 1 -6.68 1 -6 1 C-6 1.66 -6 2.32 -6 3 C-3.52733235 2.65555119 -3.52733235 2.65555119 -1 2 C-0.67 1.34 -0.34 0.68 0 0 Z " fill="#E5E5E5" transform="translate(89,111)"/>
<path d="M0 0 C6.6055504 1.64059422 10.1352157 3.32359806 14 9 C16.09182531 13.18365063 15.42935408 18.44407619 15 23 C12.84738282 27.46468749 10.07948792 30.20877142 6 33 C5.34 33 4.68 33 4 33 C3.4257851 29.10457803 2.85627487 25.20849944 2.29101562 21.31176758 C2.003762 19.33834479 1.71284265 17.36545672 1.421875 15.39257812 C1.24140625 14.14541016 1.0609375 12.89824219 0.875 11.61328125 C0.62363281 9.89298706 0.62363281 9.89298706 0.3671875 8.13793945 C0.0449329 5.38399103 -0.07254211 2.76793505 0 0 Z " fill="#F6F6F6" transform="translate(130,105)"/>
<path d="M0 0 C1.32 0.33 2.64 0.66 4 1 C5.00814835 11.69757417 2.48465197 18.26538854 -4.07421875 26.65234375 C-9.29984352 32.76661451 -9.29984352 32.76661451 -13 34 C-14.19053031 29.59503784 -14.91587747 25.52683699 -14 21 C-12.50981596 18.7819515 -10.8298544 17.01680384 -8.953125 15.1171875 C-4.99923927 10.83117537 -1.84346053 5.5303816 0 0 Z " fill="#F5F5F5" transform="translate(137,28)"/>
<path d="M0 0 C2.475 0.99 2.475 0.99 5 2 C5 2.66 5 3.32 5 4 C4.34 4 3.68 4 3 4 C3 4.66 3 5.32 3 6 C3.99 6.33 4.98 6.66 6 7 C6 7.66 6 8.32 6 9 C5.34 9 4.68 9 4 9 C4 8.34 4 7.68 4 7 C2.68 7.33 1.36 7.66 0 8 C0 8.66 0 9.32 0 10 C1.3921875 10.0309375 1.3921875 10.0309375 2.8125 10.0625 C3.864375 10.371875 4.91625 10.68125 6 11 C7.75 14.4375 7.75 14.4375 9 18 C9.66 18.66 10.32 19.32 11 20 C13 23 13 23 12.625 25.1875 C12.315625 26.0846875 12.315625 26.0846875 12 27 C8.9101255 26.56599247 5.94634037 26.04360535 3 25 C1.25 22.4375 1.25 22.4375 0 20 C-2.53471745 19.31060645 -2.53471745 19.31060645 -5 19 C-5.24942657 16.75215576 -5.47383488 14.50152494 -5.6875 12.25 C-5.87892578 10.37054688 -5.87892578 10.37054688 -6.07421875 8.453125 C-5.99485632 4.76068358 -5.53835868 3.58403608 -3 1 C-2.01 1.33 -1.02 1.66 0 2 C0 1.34 0 0.68 0 0 Z " fill="#DFDFDF" transform="translate(166,104)"/>
<path d="M0 0 C0.99 0 1.98 0 3 0 C3.62289264 11.66193434 3.62289264 11.66193434 1.3125 16.625 C-2.46061147 20.50008745 -5.07132644 22.15893339 -10.5 22.375 C-14.39715187 22.25789026 -16.860124 21.43087174 -20 19 C-17 17 -17 17 -14.4375 16.0625 C-11.69495947 15.12861682 -11.69495947 15.12861682 -10 12 C-9.896875 10.989375 -9.79375 9.97875 -9.6875 8.9375 C-9.460625 7.968125 -9.23375 6.99875 -9 6 C-6.4375 4.625 -6.4375 4.625 -4 4 C-4 4.66 -4 5.32 -4 6 C-1.2160817 4.60804085 -1.02101003 2.84424221 0 0 Z " fill="#F0F0F0" transform="translate(131,156)"/>
<path d="M0 0 C2.0625 1.1875 2.0625 1.1875 3 3 C2.92749921 6.40753711 2.46364437 8.36944365 0.4375 11.125 C-4.11667098 14.62820845 -8.19171017 17 -14 17 C-15.19088986 11.61972975 -16.2919519 6.54708616 -16 1 C-15.67 1.66 -15.34 2.32 -15 3 C-14.01 2.319375 -13.02 1.63875 -12 0.9375 C-7.60775602 -1.5800057 -4.85633137 -1.21408284 0 0 Z " fill="#E1E1E1" transform="translate(152,147)"/>
<path d="M0 0 C0.66 0.33 1.32 0.66 2 1 C1.47753216 5.24002745 -0.94414669 7.54520243 -3.75 10.625 C-4.61109375 11.58664063 -5.4721875 12.54828125 -6.359375 13.5390625 C-8.92802079 15.93291878 -10.74928459 16.85202008 -14 18 C-14.33 18.66 -14.66 19.32 -15 20 C-14.34 20 -13.68 20 -13 20 C-13.75 25.75 -13.75 25.75 -16 28 C-16 29.32 -16 30.64 -16 32 C-16.33 32.99 -16.66 33.98 -17 35 C-17.99 35 -18.98 35 -20 35 C-20.495 33.515 -20.495 33.515 -21 32 C-21.66 32.66 -22.32 33.32 -23 34 C-23.70074844 30.846632 -24 28.27275026 -24 25 C-23.34 25 -22.68 25 -22 25 C-21.75121094 24.11699219 -21.50242187 23.23398438 -21.24609375 22.32421875 C-19.94207765 18.84547988 -18.42848975 16.65433127 -16.0625 13.8125 C-15.37285156 12.97332031 -14.68320313 12.13414063 -13.97265625 11.26953125 C-10.43792961 7.20284575 -10.43792961 7.20284575 -9 6 C-8.01 6 -7.02 6 -6 6 C-5.7525 5.38125 -5.505 4.7625 -5.25 4.125 C-3.78043163 1.62673377 -2.71435596 0.93305986 0 0 Z " fill="#D2D2D2" transform="translate(107,59)"/>
<path d="M0 0 C0.99 0.33 1.98 0.66 3 1 C2.67 1.66 2.34 2.32 2 3 C1.01 3 0.02 3 -1 3 C-1.33 3.66 -1.66 4.32 -2 5 C-2 4.34 -2 3.68 -2 3 C-3.65 3.33 -5.3 3.66 -7 4 C-7.144375 4.804375 -7.28875 5.60875 -7.4375 6.4375 C-8 9 -8 9 -9 10 C-9 11.32 -9 12.64 -9 14 C-10.33333333 14 -11.66666667 14 -13 14 C-14.98 14.33 -16.96 14.66 -19 15 C-19.33 10.71 -19.66 6.42 -20 2 C-16.70729828 0.35364914 -13.05135342 0.94099831 -9.4375 1 C-6.61911671 1.04579014 -3.81968962 1.04704383 -1 1 C-0.67 0.67 -0.34 0.34 0 0 Z " fill="#A6A6A6" transform="translate(147,79)"/>
<path d="M0 0 C4.52530545 3.73719045 5.12988593 9.45045356 6 15 C5.96031222 18.14856392 5.57050832 20.88813644 5 24 C3.046875 23.1640625 3.046875 23.1640625 1 22 C0.25 19.375 0.25 19.375 0 17 C-0.969375 16.731875 -1.93875 16.46375 -2.9375 16.1875 C-3.948125 15.795625 -4.95875 15.40375 -6 15 C-6.33 14.01 -6.66 13.02 -7 12 C-5.35 12 -3.7 12 -2 12 C-2 12.66 -2 13.32 -2 14 C-1.34 14 -0.68 14 0 14 C-0.495 13.54625 -0.99 13.0925 -1.5 12.625 C-3 11 -3 11 -3 9 C-2.34 9 -1.68 9 -1 9 C-1.33 8.34 -1.66 7.68 -2 7 C-3.32 7 -4.64 7 -6 7 C-7.34164079 6.7018576 -8.67851173 6.37756808 -10 6 C-9 3 -9 3 -6.6875 1.75 C-3.90126985 0.9724474 -2.66561622 1.01273473 0 2 C0 1.34 0 0.68 0 0 Z " fill="#EBEBEB" transform="translate(172,99)"/>
<path d="M0 0 C0.33 0 0.66 0 1 0 C1.33 2.97 1.66 5.94 2 9 C1.01 9.33 0.02 9.66 -1 10 C-1.33 10.66 -1.66 11.32 -2 12 C-0.35 11.67 1.3 11.34 3 11 C3.33 12.32 3.66 13.64 4 15 C1.14336348 15.95221217 0.73922932 16 -2 16 C-1.67 16.66 -1.34 17.32 -1 18 C1.02463255 18.65213292 1.02463255 18.65213292 3 19 C3.33 20.32 3.66 21.64 4 23 C1.69 23.33 -0.62 23.66 -3 24 C-3.64910154 22.41800369 -4.29414694 20.83434276 -4.9375 19.25 C-5.29714844 18.36828125 -5.65679687 17.4865625 -6.02734375 16.578125 C-7.50894886 12.65097892 -8.12430157 9.45250644 -8.0625 5.25 C-8.05347656 4.45078125 -8.04445313 3.6515625 -8.03515625 2.828125 C-8.02355469 2.22484375 -8.01195313 1.6215625 -8 1 C-7.34 1 -6.68 1 -6 1 C-6 1.66 -6 2.32 -6 3 C-3.52733235 2.65555119 -3.52733235 2.65555119 -1 2 C-0.67 1.34 -0.34 0.68 0 0 Z " fill="#E2E2E2" transform="translate(89,111)"/>
<path d="M0 0 C4.3752828 3.42970886 8.73823518 7.87333308 11 13 C10.67 13.66 10.34 14.32 10 15 C6.9375 15.625 6.9375 15.625 4 16 C4 15.34 4 14.68 4 14 C3.01 14 2.02 14 1 14 C0.67 12.35 0.34 10.7 0 9 C-1.32 8.67 -2.64 8.34 -4 8 C-4 7.01 -4 6.02 -4 5 C-6.31 4.67 -8.62 4.34 -11 4 C-10.67 3.01 -10.34 2.02 -10 1 C-9.01 0.67 -8.02 0.34 -7 0 C-4.23858203 -1.38070898 -2.92597432 -0.88560647 0 0 Z " fill="#EAEAEA" transform="translate(161,84)"/>
<path d="M0 0 C2.28819232 0.00358651 4.52719924 0.10154887 6.8046875 0.31640625 C6.4746875 2.62640625 6.1446875 4.93640625 5.8046875 7.31640625 C5.1446875 7.31640625 4.4846875 7.31640625 3.8046875 7.31640625 C3.4746875 6.32640625 3.1446875 5.33640625 2.8046875 4.31640625 C0.30021234 3.09770696 0.30021234 3.09770696 -2.1953125 2.31640625 C-2.1953125 2.97640625 -2.1953125 3.63640625 -2.1953125 4.31640625 C0.26795462 5.96107365 0.26795462 5.96107365 2.8046875 7.31640625 C2.7421875 10.12890625 2.7421875 10.12890625 1.8046875 13.31640625 C-1.4930482 15.24527053 -3.77598484 16.49837133 -7.6328125 16.00390625 C-8.1484375 15.77703125 -8.6640625 15.55015625 -9.1953125 15.31640625 C-9.1953125 14.65640625 -9.1953125 13.99640625 -9.1953125 13.31640625 C-10.1853125 13.31640625 -11.1753125 13.31640625 -12.1953125 13.31640625 C-11.5353125 11.99640625 -10.8753125 10.67640625 -10.1953125 9.31640625 C-9.2053125 9.31640625 -8.2153125 9.31640625 -7.1953125 9.31640625 C-6.9271875 8.75953125 -6.6590625 8.20265625 -6.3828125 7.62890625 C-5.9909375 6.86578125 -5.5990625 6.10265625 -5.1953125 5.31640625 C-4.669375 3.95515625 -4.669375 3.95515625 -4.1328125 2.56640625 C-2.1953125 0.31640625 -2.1953125 0.31640625 0 0 Z " fill="#E3E3E3" transform="translate(159.1953125,130.68359375)"/>
<path d="M0 0 C0.66 0.33 1.32 0.66 2 1 C1.47753216 5.24002745 -0.94414669 7.54520243 -3.75 10.625 C-4.61109375 11.58664063 -5.4721875 12.54828125 -6.359375 13.5390625 C-8.93571575 15.94009013 -10.72724087 16.87568479 -14 18 C-14.66 18.66 -15.32 19.32 -16 20 C-15.67 18.35 -15.34 16.7 -15 15 C-14.34 15 -13.68 15 -13 15 C-11.58622659 12.36095629 -10.62759865 9.92879371 -10 7 C-9.38125 6.9175 -8.7625 6.835 -8.125 6.75 C-5.32494581 5.76174558 -5.25886068 4.59640015 -4 2 C-2 0.6875 -2 0.6875 0 0 Z " fill="#D9D9D9" transform="translate(107,59)"/>
<path d="M0 0 C-0.33 0.99 -0.66 1.98 -1 3 C-0.79375 3.66 -0.5875 4.32 -0.375 5 C0 7 0 7 -1.0625 8.6875 C-3.62952708 10.42645383 -5.95169518 10.66129946 -9 11 C-8.79375 10.401875 -8.5875 9.80375 -8.375 9.1875 C-7.69328085 6.71549154 -7.69328085 6.71549154 -10 4 C-11.32 4.99 -12.64 5.98 -14 7 C-14 5.02 -14 3.04 -14 1 C-13.67 1.66 -13.34 2.32 -13 3 C-11.96875 2.319375 -10.9375 1.63875 -9.875 0.9375 C-6.27120044 -1.15431848 -4.06673772 -1.1902647 0 0 Z " fill="#E1E1E1" transform="translate(150,147)"/>
<path d="M0 0 C-0.66 1.32 -1.32 2.64 -2 4 C-8.27 4 -14.54 4 -21 4 C-21 2.35 -21 0.7 -21 -1 C-14.02443193 -2.39511361 -6.78742078 -2.26247359 0 0 Z " fill="#F2F2F2" transform="translate(148,77)"/>
<path d="M0 0 C3.14968791 0.9363937 4.77116279 1.73425357 6.9375 4.25 C8 7 8 7 7.375 10.25 C6.92125 11.1575 6.4675 12.065 6 13 C5.01 13.33 4.02 13.66 3 14 C3 12.68 3 11.36 3 10 C0.69 9.67 -1.62 9.34 -4 9 C-3.67 7.35 -3.34 5.7 -3 4 C-2.34 4 -1.68 4 -1 4 C-0.67 2.68 -0.34 1.36 0 0 Z " fill="#F1F1F1" transform="translate(162,122)"/>
<path d="M0 0 C0.99 0.33 1.98 0.66 3 1 C3.71706982 2.98248715 4.38290413 4.98415349 5 7 C5.66 7.66 6.32 8.32 7 9 C9 12 9 12 8.625 14.1875 C8.41875 14.785625 8.2125 15.38375 8 16 C-0.36005411 14.82573663 -0.36005411 14.82573663 -2.9375 11.5 C-3.288125 10.675 -3.63875 9.85 -4 9 C-4.66 8.34 -5.32 7.68 -6 7 C-5.34 6.34 -4.68 5.68 -4 5 C-3.01 6.65 -2.02 8.3 -1 10 C1.56687367 6.1496895 0.83288724 4.41430237 0 0 Z " fill="#A6A6A6" transform="translate(170,115)"/>
<path d="M0 0 C0.99 0.33 1.98 0.66 3 1 C5.14255793 0.61067144 5.14255793 0.61067144 7 0 C7.12117188 0.68707031 7.24234375 1.37414062 7.3671875 2.08203125 C7.53476563 2.98308594 7.70234375 3.88414062 7.875 4.8125 C8.11863281 6.15248047 8.11863281 6.15248047 8.3671875 7.51953125 C8.91188449 10.22727846 8.91188449 10.22727846 11 13 C10.21625 13.268125 9.4325 13.53625 8.625 13.8125 C5.71885077 14.84814432 5.71885077 14.84814432 4 18 C0 11.5 0 11.5 0 7 C1.98 7 3.96 7 6 7 C5.67 5.68 5.34 4.36 5 3 C3.35 2.67 1.7 2.34 0 2 C0 1.34 0 0.68 0 0 Z " fill="#BEBEBE" transform="translate(87,127)"/>
<path d="M0 0 C0.5775 0.639375 1.155 1.27875 1.75 1.9375 C3.98062401 3.98223868 5.07436391 4.58205199 8 5 C8 5.66 8 6.32 8 7 C11.32534757 8.10844919 13.62182575 7.84454356 17 7 C17.33 7.99 17.66 8.98 18 10 C17.34 10 16.68 10 16 10 C15.67 10.66 15.34 11.32 15 12 C14.34 11.34 13.68 10.68 13 10 C10.53199953 11.15173355 8.95216435 12.04783565 7 14 C3 9.25 3 9.25 3 7 C2.34 7 1.68 7 1 7 C0.34 5.02 -0.32 3.04 -1 1 C-0.67 0.67 -0.34 0.34 0 0 Z " fill="#E7E7E7" transform="translate(154,91)"/>
<path d="M0 0 C0.33 0 0.66 0 1 0 C1 1.65 1 3.3 1 5 C0.01 5.33 -0.98 5.66 -2 6 C-3.21869929 8.50447516 -3.21869929 8.50447516 -4 11 C-4.66 11 -5.32 11 -6 11 C-6 10.34 -6 9.68 -6 9 C-7.65 9.66 -9.3 10.32 -11 11 C-11 12.98 -11 14.96 -11 17 C-11.33 17 -11.66 17 -12 17 C-12.33 14.36 -12.66 11.72 -13 9 C-11.35 8.67 -9.7 8.34 -8 8 C-8 7.34 -8 6.68 -8 6 C-9.32 5.67 -10.64 5.34 -12 5 C-12 4.34 -12 3.68 -12 3 C-10.37509046 2.97301811 -8.75005367 2.95361243 -7.125 2.9375 C-6.22007813 2.92589844 -5.31515625 2.91429687 -4.3828125 2.90234375 C-2 3 -2 3 0 4 C0 2.68 0 1.36 0 0 Z " fill="#B3B3B3" transform="translate(133,151)"/>
<path d="M0 0 C1 3 1 3 1 5 C1.66 5.66 2.32 6.32 3 7 C4.9931567 7.02375926 4.9931567 7.02375926 7.125 6.625 C9.043125 6.315625 9.043125 6.315625 11 6 C10.67 6.99 10.34 7.98 10 9 C6.59738102 9.82973701 3.50125432 10.30747559 0 10 C-3.14400672 8.08145277 -5.55464253 5.73907359 -8 3 C-7.67 2.34 -7.34 1.68 -7 1 C-4.61370553 0.38812962 -2.46459429 0 0 0 Z " fill="#B4B4B4" transform="translate(105,146)"/>
<path d="M0 0 C0.33 0 0.66 0 1 0 C1.33 2.97 1.66 5.94 2 9 C1.01 9.33 0.02 9.66 -1 10 C-1.33 10.66 -1.66 11.32 -2 12 C-0.35 11.67 1.3 11.34 3 11 C3.33 12.32 3.66 13.64 4 15 C3.01 15.33 2.02 15.66 1 16 C0.67 15.34 0.34 14.68 0 14 C-2.01669827 12.86649466 -2.01669827 12.86649466 -4 12 C-3.67 10.35 -3.34 8.7 -3 7 C-3.99 7.33 -4.98 7.66 -6 8 C-6.66 5.69 -7.32 3.38 -8 1 C-7.34 1 -6.68 1 -6 1 C-6 1.66 -6 2.32 -6 3 C-3.52733235 2.65555119 -3.52733235 2.65555119 -1 2 C-0.67 1.34 -0.34 0.68 0 0 Z " fill="#D3D3D3" transform="translate(89,111)"/>
<path d="M0 0 C-1.29068732 4.63288815 -3.0438844 7.69753944 -6.125 11.375 C-7.21167969 12.68597656 -7.21167969 12.68597656 -8.3203125 14.0234375 C-9.15175781 15.00183594 -9.15175781 15.00183594 -10 16 C-11 13 -11 13 -10.109375 10.625 C-9.66078125 9.75875 -9.2121875 8.8925 -8.75 8 C-8.31171875 7.13375 -7.8734375 6.2675 -7.421875 5.375 C-4.20394737 0 -4.20394737 0 0 0 Z " fill="#EDEDED" transform="translate(136,28)"/>
<path d="M0 0 C5.0302076 0.52537724 10.01885239 1.10594786 15 2 C15 2.33 15 2.66 15 3 C12.36 3 9.72 3 7 3 C7 3.66 7 4.32 7 5 C8.32 5.33 9.64 5.66 11 6 C11 6.66 11 7.32 11 8 C8.8125 8.8125 8.8125 8.8125 6 9 C3.1875 6.5625 3.1875 6.5625 1 4 C1.33 3.01 1.66 2.02 2 1 C1.34 0.67 0.68 0.34 0 0 Z " fill="#DEDEDE" transform="translate(114,151)"/>
<path d="M0 0 C2.475 0.99 2.475 0.99 5 2 C5 2.66 5 3.32 5 4 C4.34 4 3.68 4 3 4 C3 4.66 3 5.32 3 6 C3.99 6.33 4.98 6.66 6 7 C6 7.66 6 8.32 6 9 C5.34 9 4.68 9 4 9 C4 8.34 4 7.68 4 7 C2.02 7 0.04 7 -2 7 C-2.33 8.32 -2.66 9.64 -3 11 C-3.38922918 9.71254964 -3.76098036 8.41980403 -4.125 7.125 C-4.43824219 6.04605469 -4.43824219 6.04605469 -4.7578125 4.9453125 C-4.83773437 4.30335937 -4.91765625 3.66140625 -5 3 C-4.34 2.34 -3.68 1.68 -3 1 C-2.01 1.33 -1.02 1.66 0 2 C0 1.34 0 0.68 0 0 Z " fill="#8C8C8C" transform="translate(166,104)"/>
<path d="M0 0 C2.38346353 0.92263104 3.70891888 1.45664858 4.9375 3.75 C5.03435417 7.23675008 3.95889969 9.15643594 2 12 C-1.1875 12.875 -1.1875 12.875 -4 13 C-3.34 12.195625 -2.68 11.39125 -2 10.5625 C0.10254514 8.41038085 0.10254514 8.41038085 0 7 C-0.65257873 5.327767 -1.31867549 3.66072849 -2 2 C-1.34 1.34 -0.68 0.68 0 0 Z " fill="#F0F0F0" transform="translate(150,147)"/>
<path d="M0 0 C0.99 0 1.98 0 3 0 C3 1.32 3 2.64 3 4 C3.66 4.33 4.32 4.66 5 5 C5 8.63 5 12.26 5 16 C3.35 15.67 1.7 15.34 0 15 C0.33 14.01 0.66 13.02 1 12 C1.33 12.33 1.66 12.66 2 13 C2 12.01 2 11.02 2 10 C1.34 10 0.68 10 0 10 C0 6.7 0 3.4 0 0 Z " fill="#868686" transform="translate(83,94)"/>
<path d="M0 0 C0.66 0.66 1.32 1.32 2 2 C2.99 1.34 3.98 0.68 5 0 C5 1.32 5 2.64 5 4 C5.99 4 6.98 4 8 4 C7.67 9.28 7.34 14.56 7 20 C6.67 20 6.34 20 6 20 C6 16.37 6 12.74 6 9 C5.01 8.67 4.02 8.34 3 8 C2.67 7.01 2.34 6.02 2 5 C1.01 6.32 0.02 7.64 -1 9 C-0.67 6.03 -0.34 3.06 0 0 Z " fill="#D7D7D7" transform="translate(82,90)"/>
<path d="M0 0 C4.05606165 0.46800711 7.46588679 0.87953208 11 3 C11 4.65 11 6.3 11 8 C10.236875 7.690625 9.47375 7.38125 8.6875 7.0625 C6.81210323 6.32106407 4.91315348 5.63771783 3 5 C3 4.34 3 3.68 3 3 C1.68 2.67 0.36 2.34 -1 2 C-0.67 1.34 -0.34 0.68 0 0 Z " fill="#F1F1F1" transform="translate(140,90)"/>
<path d="M0 0 C1.42944945 2.35438733 2.08661261 3.48032433 1.625 6.25 C1.41875 6.8275 1.2125 7.405 1 8 C0.67 7.34 0.34 6.68 0 6 C-1.65 7.65 -3.3 9.3 -5 11 C-5.99 10.67 -6.98 10.34 -8 10 C-6.92598892 7.08482708 -6.22189824 5.22189824 -4 3 C-3.01 3 -2.02 3 -1 3 C-0.67 2.01 -0.34 1.02 0 0 Z " fill="#A5A5A5" transform="translate(119,48)"/>
<path d="M0 0 C1.32 0.66 2.64 1.32 4 2 C2.4169423 6.2742558 -0.50568404 8.26531794 -4 11 C-4.66 10.67 -5.32 10.34 -6 10 C-4.6875 6.5625 -4.6875 6.5625 -3 3 C-2.01 2.67 -1.02 2.34 0 2 C0 1.34 0 0.68 0 0 Z " fill="#D6D6D6" transform="translate(159,146)"/>
<path d="M0 0 C-0.33 0.99 -0.66 1.98 -1 3 C-1.66 3 -2.32 3 -3 3 C-3.25015873 6.41642759 -3.25015873 6.41642759 -3 10 C-2.01 10.66 -1.02 11.32 0 12 C-3.63 12.33 -7.26 12.66 -11 13 C-10.34 11.02 -9.68 9.04 -9 7 C-8.67 8.32 -8.34 9.64 -8 11 C-7.01 11 -6.02 11 -5 11 C-5.226875 9.9275 -5.45375 8.855 -5.6875 7.75 C-6 4 -6 4 -4.75 1.5625 C-3 0 -3 0 0 0 Z " fill="#C1C1C1" transform="translate(143,82)"/>
<path d="M0 0 C2.31 0 4.62 0 7 0 C6.01 0.66 5.02 1.32 4 2 C3.34444881 4.52733235 3.34444881 4.52733235 3 7 C2.67 7.33 2.34 7.66 2 8 C2 9.32 2 10.64 2 12 C1.01 12 0.02 12 -1 12 C-2.42857143 3.42857143 -2.42857143 3.42857143 0 0 Z " fill="#F7F7F7" transform="translate(136,81)"/>
<path d="M0 0 C2.28304899 0.0179485 4.52425196 0.11763285 6.796875 0.33203125 C6.466875 2.64203125 6.136875 4.95203125 5.796875 7.33203125 C5.136875 7.33203125 4.476875 7.33203125 3.796875 7.33203125 C3.466875 6.34203125 3.136875 5.35203125 2.796875 4.33203125 C0.29239984 3.11333196 0.29239984 3.11333196 -2.203125 2.33203125 C-2.42921837 4.45567606 -2.42921837 4.45567606 -0.703125 5.95703125 C-0.208125 6.41078125 0.286875 6.86453125 0.796875 7.33203125 C-0.193125 7.66203125 -1.183125 7.99203125 -2.203125 8.33203125 C-3.193125 7.34203125 -4.183125 6.35203125 -5.203125 5.33203125 C-4.06475685 2.29638286 -3.36675282 0.50740069 0 0 Z " fill="#939393" transform="translate(159.203125,130.66796875)"/>
<path d="M0 0 C3.95820859 0.56545837 6.6659053 1.80902348 10 4 C8.8125 6 8.8125 6 7 8 C4.5 8.5 4.5 8.5 2 8 C0.1875 6 0.1875 6 -1 4 C-0.34 3.34 0.32 2.68 1 2 C0.67 1.34 0.34 0.68 0 0 Z " fill="#B4B4B4" transform="translate(148,78)"/>
<path d="M0 0 C1.32 0.33 2.64 0.66 4 1 C3.34 1 2.68 1 2 1 C1.92523438 1.68707031 1.85046875 2.37414062 1.7734375 3.08203125 C0.78311777 6.8182375 -1.1570928 9.58874675 -3.375 12.6875 C-3.77460938 13.26822266 -4.17421875 13.84894531 -4.5859375 14.44726562 C-6.5618574 17.25840167 -8.10909217 19.07272811 -11 21 C-11 19.35 -11 17.7 -11 16 C-10.34 16 -9.68 16 -9 16 C-6.98137011 13.70225224 -6.98137011 13.70225224 -4.9375 10.8125 C-4.22464844 9.84957031 -3.51179687 8.88664062 -2.77734375 7.89453125 C-1.07540923 5.12280932 -0.37977425 3.19594634 0 0 Z " fill="#707070" transform="translate(135,27)"/>
<path d="M0 0 C0.99 0 1.98 0 3 0 C3 2.31 3 4.62 3 7 C-0.96 7 -4.92 7 -9 7 C-8.01 6.01 -7.02 5.02 -6 4 C-5.34 4 -4.68 4 -4 4 C-4 4.66 -4 5.32 -4 6 C-1.2160817 4.60804085 -1.02101003 2.84424221 0 0 Z " fill="#E3E3E3" transform="translate(131,156)"/>
<path d="M0 0 C1.32 0.66 2.64 1.32 4 2 C3.01 4.31 2.02 6.62 1 9 C-0.65 9 -2.3 9 -4 9 C-3.67 7.35 -3.34 5.7 -3 4 C-2.34 4 -1.68 4 -1 4 C-0.67 2.68 -0.34 1.36 0 0 Z " fill="#EAEAEA" transform="translate(162,122)"/>
<path d="M0 0 C0.99 0.33 1.98 0.66 3 1 C5.14255793 0.61067144 5.14255793 0.61067144 7 0 C7.36237263 1.62318979 7.71465157 3.2486358 8.0625 4.875 C8.25972656 5.77992188 8.45695312 6.68484375 8.66015625 7.6171875 C9 10 9 10 8 12 C7.608125 11.505 7.21625 11.01 6.8125 10.5 C4.44908285 8.54406857 2.98564997 8.75792027 0 9 C0 8.34 0 7.68 0 7 C1.98 7 3.96 7 6 7 C5.67 5.68 5.34 4.36 5 3 C3.35 2.67 1.7 2.34 0 2 C0 1.34 0 0.68 0 0 Z " fill="#919191" transform="translate(87,127)"/>
<path d="M0 0 C2.99220268 1.36370299 5.29026529 2.94908083 7.75 5.125 C8.67039062 5.93324219 8.67039062 5.93324219 9.609375 6.7578125 C10.06828125 7.16773438 10.5271875 7.57765625 11 8 C10.67 8.99 10.34 9.98 10 11 C6.28452679 8.63560796 2.84574432 6.39300284 0 3 C0 2.01 0 1.02 0 0 Z " fill="#EAEAEA" transform="translate(95,148)"/>
<path d="M0 0 C0.99 1.32 1.98 2.64 3 4 C2.01 5.98 1.02 7.96 0 10 C-0.66 10 -1.32 10 -2 10 C-3.39431504 7.21136993 -3.25660094 5.07921132 -3 2 C-2.01 1.34 -1.02 0.68 0 0 Z " fill="#EFEFEF" transform="translate(140,150)"/>
<path d="M0 0 C2.99529289 0.99843096 4.15840327 1.51384442 6 4 C5.71225849 6.97332891 4.39923409 9.38809637 3 12 C0.58314288 7.77050005 -0.34833144 4.87664009 0 0 Z " fill="#E7E7E7" transform="translate(166,115)"/>
<path d="M0 0 C3 0 3 0 5 1 C6.3749149 3.90259811 7 5.76138705 7 9 C6.01 9 5.02 9 4 9 C3.67 8.01 3.34 7.02 3 6 C2.34 6.66 1.68 7.32 1 8 C0.40267181 5.23735711 0 2.83967231 0 0 Z " fill="#6D6D6D" transform="translate(83,85)"/>
<path d="M0 0 C0.33 0 0.66 0 1 0 C1 1.65 1 3.3 1 5 C0.01 5.33 -0.98 5.66 -2 6 C-3.21869929 8.50447516 -3.21869929 8.50447516 -4 11 C-4.66 11 -5.32 11 -6 11 C-6 10.34 -6 9.68 -6 9 C-5.34 9 -4.68 9 -4 9 C-4 7.68 -4 6.36 -4 5 C-6.64 5 -9.28 5 -12 5 C-12 4.34 -12 3.68 -12 3 C-10.37509046 2.97301811 -8.75005367 2.95361243 -7.125 2.9375 C-6.22007813 2.92589844 -5.31515625 2.91429687 -4.3828125 2.90234375 C-2 3 -2 3 0 4 C0 2.68 0 1.36 0 0 Z " fill="#787878" transform="translate(133,151)"/>
<path d="M0 0 C0.66 0.66 1.32 1.32 2 2 C1.67 2.99 1.34 3.98 1 5 C0.67 4.67 0.34 4.34 0 4 C-0.28875 4.639375 -0.5775 5.27875 -0.875 5.9375 C-2 8 -2 8 -4 9 C-4 10.32 -4 11.64 -4 13 C-4.66 13 -5.32 13 -6 13 C-6.71484375 10.76953125 -6.71484375 10.76953125 -7 8 C-5.56640625 5.76171875 -5.56640625 5.76171875 -3.5625 3.6875 C-2.57443359 2.64142578 -2.57443359 2.64142578 -1.56640625 1.57421875 C-1.04949219 1.05472656 -0.53257813 0.53523438 0 0 Z " fill="#D7D7D7" transform="translate(96,67)"/>
<path d="M0 0 C0.99 0 1.98 0 3 0 C3.99 2.31 4.98 4.62 6 7 C4.02 7.33 2.04 7.66 0 8 C0 5.36 0 2.72 0 0 Z " fill="#EFEFEF" transform="translate(128,86)"/>
<path d="M0 0 C0.33 0 0.66 0 1 0 C1 2.97 1 5.94 1 9 C0.34 8.34 -0.32 7.68 -1 7 C-1.33 8.65 -1.66 10.3 -2 12 C-2.99 12 -3.98 12 -5 12 C-5 9.03 -5 6.06 -5 3 C-2.525 3.495 -2.525 3.495 0 4 C0 2.68 0 1.36 0 0 Z " fill="#DDDDDD" transform="translate(85,100)"/>
<path d="M0 0 C0.66 0.33 1.32 0.66 2 1 C2 1.66 2 2.32 2 3 C3.32 3 4.64 3 6 3 C6.625 4.875 6.625 4.875 7 7 C6.34 7.66 5.68 8.32 5 9 C4.87625 8.360625 4.7525 7.72125 4.625 7.0625 C4.41875 6.381875 4.2125 5.70125 4 5 C3.34 4.67 2.68 4.34 2 4 C1.67 6.31 1.34 8.62 1 11 C0.01 11 -0.98 11 -2 11 C-1.67 10.01 -1.34 9.02 -1 8 C-0.34 8 0.32 8 1 8 C0.67 5.36 0.34 2.72 0 0 Z " fill="#BABABA" transform="translate(164,111)"/>
<path d="M0 0 C1.65 0.33 3.3 0.66 5 1 C5.12375 1.804375 5.2475 2.60875 5.375 3.4375 C5.684375 4.7059375 5.684375 4.7059375 6 6 C6.66 6.33 7.32 6.66 8 7 C7.01 7.66 6.02 8.32 5 9 C4.67 8.34 4.34 7.68 4 7 C4.33 6.34 4.66 5.68 5 5 C3.02 4.34 1.04 3.68 -1 3 C-0.67 2.01 -0.34 1.02 0 0 Z " fill="#F4F4F4" transform="translate(157,133)"/>
<path d="M0 0 C1.5 1.375 1.5 1.375 3 3 C3 3.66 3 4.32 3 5 C0.69 5.33 -1.62 5.66 -4 6 C-4 4.68 -4 3.36 -4 2 C-2.68 1.34 -1.36 0.68 0 0 Z " fill="#F8F8F8" transform="translate(167,100)"/>
<path d="M0 0 C0.66 0.33 1.32 0.66 2 1 C1.1875 3.9375 1.1875 3.9375 0 7 C-0.99 7.33 -1.98 7.66 -3 8 C-3.33 7.34 -3.66 6.68 -4 6 C-4.66 6.66 -5.32 7.32 -6 8 C-5.65120368 4.74456771 -4.97866739 3.98126893 -2.4375 1.75 C-1.633125 1.1725 -0.82875 0.595 0 0 Z " fill="#D0D0D0" transform="translate(111,54)"/>
<path d="M0 0 C2.83967231 0 5.23735711 0.40267181 8 1 C8 1.66 8 2.32 8 3 C7.34 3 6.68 3 6 3 C5.67 3.66 5.34 4.32 5 5 C4.34 4.34 3.68 3.68 3 3 C0.89179203 3.3185177 0.89179203 3.3185177 -1 4 C-0.67 2.68 -0.34 1.36 0 0 Z " fill="#676767" transform="translate(164,98)"/>
<path d="M0 0 C0.66 0 1.32 0 2 0 C2.33 0.99 2.66 1.98 3 3 C3.66 3.165 4.32 3.33 5 3.5 C5.66 3.665 6.32 3.83 7 4 C7.33 4.99 7.66 5.98 8 7 C6.02 7 4.04 7 2 7 C1.01 5.02 0.02 3.04 -1 1 C-0.67 0.67 -0.34 0.34 0 0 Z " fill="#717171" transform="translate(155,89)"/>
<path d="M0 0 C0.99 0.33 1.98 0.66 3 1 C4.23076923 7.4 4.23076923 7.4 3.0625 10.4375 C2.711875 10.953125 2.36125 11.46875 2 12 C1.34 12 0.68 12 0 12 C0.185625 10.7625 0.37125 9.525 0.5625 8.25 C0.94711223 5.23720423 1.0874594 2.89989173 0 0 Z " fill="#5A5A5A" transform="translate(170,115)"/>
<path d="M0 0 C-0.66 2.31 -1.32 4.62 -2 7 C-2.33 6.01 -2.66 5.02 -3 4 C-4.32 4 -5.64 4 -7 4 C-7 3.01 -7 2.02 -7 1 C-4.53721199 -0.231394 -2.7204945 -0.07159196 0 0 Z " fill="#F7F7F7" transform="translate(135,81)"/>
<path d="M0 0 C0.66 0.33 1.32 0.66 2 1 C1.625 2.9375 1.625 2.9375 1 5 C0.01 5.495 0.01 5.495 -1 6 C-1.99 5.67 -2.98 5.34 -4 5 C-4.99 5.495 -4.99 5.495 -6 6 C-4.98545548 3.4636387 -4.3146444 2.20648539 -2 0.6875 C-1.34 0.460625 -0.68 0.23375 0 0 Z " fill="#A0A0A0" transform="translate(107,59)"/>
<path d="M0 0 C0.66 0.33 1.32 0.66 2 1 C1.67 2.32 1.34 3.64 1 5 C0.34 5 -0.32 5 -1 5 C-1.33 5.99 -1.66 6.98 -2 8 C-2.99 7.67 -3.98 7.34 -5 7 C-3.625 4.5 -3.625 4.5 -2 2 C-1.34 2 -0.68 2 0 2 C0 1.34 0 0.68 0 0 Z " fill="#6E6E6E" transform="translate(159,146)"/>
<path d="M0 0 C0.33 1.32 0.66 2.64 1 4 C-3.455 5.485 -3.455 5.485 -8 7 C-7.3125 4.5625 -7.3125 4.5625 -6 2 C-3.4375 1.25 -3.4375 1.25 -1 1 C-0.67 0.67 -0.34 0.34 0 0 Z " fill="#747474" transform="translate(160,140)"/>
<path d="M0 0 C2.38825352 3.64429796 1.94295451 6.0693436 1.125 10.25 C0.92132813 11.32765625 0.71765625 12.4053125 0.5078125 13.515625 C0.34023437 14.33546875 0.17265625 15.1553125 0 16 C-0.33 16 -0.66 16 -1 16 C-2.0006709 10.03654233 -2.0662997 5.71271093 0 0 Z " fill="#F0F0F0" transform="translate(82,95)"/>
<path d="M0 0 C0 0.99 0 1.98 0 3 C-1.65 3.66 -3.3 4.32 -5 5 C-5.66 4.01 -6.32 3.02 -7 2 C-4 0 -4 0 0 0 Z " fill="#DBDBDB" transform="translate(159,145)"/>
<path d="M0 0 C2.31 0 4.62 0 7 0 C6.01 0.66 5.02 1.32 4 2 C3.27034634 4.56282742 3.27034634 4.56282742 3 7 C1.68 5.68 0.36 4.36 -1 3 C-0.67 2.01 -0.34 1.02 0 0 Z " fill="#EEEEEE" transform="translate(136,81)"/>
<path d="M0 0 C0.66 0.33 1.32 0.66 2 1 C1.1875 3.9375 1.1875 3.9375 0 7 C-0.99 7.33 -1.98 7.66 -3 8 C-2.45276317 4.62537285 -1.9451 2.91765 0 0 Z " fill="#FCFCFC" transform="translate(168,128)"/>
<path d="M0 0 C0.99 0.495 0.99 0.495 2 1 C2 1.66 2 2.32 2 3 C3.65 2.67 5.3 2.34 7 2 C7.33 3.32 7.66 4.64 8 6 C7.01 6.33 6.02 6.66 5 7 C4.67 6.34 4.34 5.68 4 5 C1.98330173 3.86649466 1.98330173 3.86649466 0 3 C0 2.01 0 1.02 0 0 Z " fill="#9E9E9E" transform="translate(85,120)"/>
<path d="M0 0 C-0.33 0.99 -0.66 1.98 -1 3 C-1.66 3 -2.32 3 -3 3 C-3 4.65 -3 6.3 -3 8 C-3.99 8.495 -3.99 8.495 -5 9 C-5.6875 6.75 -5.6875 6.75 -6 4 C-3.83783784 0 -3.83783784 0 0 0 Z " fill="#696969" transform="translate(143,82)"/>
<path d="M0 0 C3 2 3 2 3.6875 4.625 C3.8421875 5.800625 3.8421875 5.800625 4 7 C2.68 7.33 1.36 7.66 0 8 C0.2784375 7.13375 0.2784375 7.13375 0.5625 6.25 C1.04023546 3.79307475 0.75729364 2.35602466 0 0 Z " fill="#909090" transform="translate(141,150)"/>
<path d="M0 0 C3 2 3 2 3.9375 4.5 C4.77763578 7.14520215 4.77763578 7.14520215 7.125 8.3125 C7.74375 8.539375 8.3625 8.76625 9 9 C6.6875 9.3125 6.6875 9.3125 4 9 C2.3125 6.625 2.3125 6.625 1 4 C0.34 3.34 -0.32 2.68 -1 2 C-0.67 1.34 -0.34 0.68 0 0 Z " fill="#464646" transform="translate(165,120)"/>
<path d="M0 0 C-0.66 2.31 -1.32 4.62 -2 7 C-2.99 7 -3.98 7 -5 7 C-5 3 -5 3 -3.625 1.25 C-2 0 -2 0 0 0 Z " fill="#F5F5F5" transform="translate(145,82)"/>
<path d="M0 0 C1.32 0.66 2.64 1.32 4 2 C3.34 3.32 2.68 4.64 2 6 C1.01 5.67 0.02 5.34 -1 5 C-0.67 3.35 -0.34 1.7 0 0 Z " fill="#F4F4F4" transform="translate(146,82)"/>
<path d="M0 0 C0.66 1.32 1.32 2.64 2 4 C-0.297221 5.74271938 -2.59866729 7.39911152 -5 9 C-4.67 7.35 -4.34 5.7 -4 4 C-3.34 4 -2.68 4 -2 4 C-1.34 2.68 -0.68 1.36 0 0 Z " fill="#878787" transform="translate(96,70)"/>
<path d="M0 0 C0.99 0 1.98 0 3 0 C3 1.65 3 3.3 3 5 C1.68 5 0.36 5 -1 5 C-0.67 3.35 -0.34 1.7 0 0 Z " fill="#F2F2F2" transform="translate(131,156)"/>
<path d="M0 0 C0.99 0 1.98 0 3 0 C3 1.32 3 2.64 3 4 C2.01 4.33 1.02 4.66 0 5 C-0.99 4.34 -1.98 3.68 -3 3 C-2.67 2.34 -2.34 1.68 -2 1 C-1.34 1.33 -0.68 1.66 0 2 C0 1.34 0 0.68 0 0 Z " fill="#898989" transform="translate(98,141)"/>
<path d="M0 0 C0.66 0 1.32 0 2 0 C3.6875 2.375 3.6875 2.375 5 5 C4.67 5.66 4.34 6.32 4 7 C3.01 6.67 2.02 6.34 1 6 C0.67 4.02 0.34 2.04 0 0 Z " fill="#E5E5E5" transform="translate(94,131)"/>
<path d="M0 0 C1.32 0 2.64 0 4 0 C4 0.99 4 1.98 4 3 C2.02 3.99 2.02 3.99 0 5 C-0.5625 3.0625 -0.5625 3.0625 -1 1 C-0.67 0.67 -0.34 0.34 0 0 Z " fill="#818181" transform="translate(98,65)"/>
<path d="M0 0 C0.66 0.33 1.32 0.66 2 1 C2 3.62113708 1.68707555 5.50935112 1 8 C0.34 8 -0.32 8 -1 8 C-1.33 5.69 -1.66 3.38 -2 1 C-1.34 0.67 -0.68 0.34 0 0 Z " fill="#929292" transform="translate(148,147)"/>
<path d="M0 0 C0.66 0 1.32 0 2 0 C2 0.66 2 1.32 2 2 C2.99 2 3.98 2 5 2 C5 3.32 5 4.64 5 6 C4.01 6.33 3.02 6.66 2 7 C1.34 4.69 0.68 2.38 0 0 Z " fill="#7A7A7A" transform="translate(81,112)"/>
<path d="M0 0 C0.99 0.33 1.98 0.66 3 1 C2.34 1 1.68 1 1 1 C0.77390663 3.12364481 0.77390663 3.12364481 2.5 4.625 C2.995 5.07875 3.49 5.5325 4 6 C3.01 6.33 2.02 6.66 1 7 C0.01 6.01 -0.98 5.02 -2 4 C-1.34 2.68 -0.68 1.36 0 0 Z " fill="#A4A4A4" transform="translate(156,132)"/>
<path d="M0 0 C1.65 0 3.3 0 5 0 C5 0.66 5 1.32 5 2 C5.66 2 6.32 2 7 2 C7 2.66 7 3.32 7 4 C4.03 3.505 4.03 3.505 1 3 C0.67 2.01 0.34 1.02 0 0 Z " fill="#EFEFEF" transform="translate(165,111)"/>
<path d="M0 0 C1.98 0.99 1.98 0.99 4 2 C4 2.66 4 3.32 4 4 C3.34 4 2.68 4 2 4 C1.67 5.32 1.34 6.64 1 8 C0.40267181 5.23735711 0 2.83967231 0 0 Z " fill="#7C7C7C" transform="translate(83,85)"/>
<path d="M0 0 C0.66 0 1.32 0 2 0 C1.34 2.97 0.68 5.94 0 9 C-0.99 8.34 -1.98 7.68 -3 7 C-1.125 1.125 -1.125 1.125 0 0 Z " fill="#616161" transform="translate(134,82)"/>
<path d="M0 0 C2.125 0.375 2.125 0.375 4 1 C3.01 1.66 2.02 2.32 1 3 C1 4.32 1 5.64 1 7 C0.34 7 -0.32 7 -1 7 C-1.625 4.625 -1.625 4.625 -2 2 C-1.34 1.34 -0.68 0.68 0 0 Z " fill="#DFDFDF" transform="translate(91,73)"/>
</svg>
