<svg version="1.1" id="Layer_1" xmlns="http://www.w3.org/2000/svg" xmlns:xlink="http://www.w3.org/1999/xlink" x="0px" y="0px"
	 width="100%" viewBox="0 0 189 148" enable-background="new 0 0 189 148" xml:space="preserve">
<path fill="none" opacity="1.000000" stroke="#000000" stroke-linecap="round" stroke-linejoin="round" stroke-width="3.000000"
	d="
M141.500000,43.500000 
	C137.011108,46.063286 136.268265,50.525711 136.062668,55.002876 
	C135.803024,60.657623 135.898666,66.336014 136.048477,71.998718 
	C136.110870,74.357414 134.783615,77.294296 138.467102,78.593269 
	C139.747711,79.044861 138.951843,80.845230 138.964142,82.000381 
	C139.036850,88.832947 138.996231,95.666664 139.002548,102.500000 
	C139.004196,104.288048 138.613724,106.264275 140.773682,107.085541 
	C142.785233,106.472511 143.036285,105.188087 143.031906,103.499916 
	C142.981796,84.166710 143.003754,64.833328 142.979065,45.500027 
	C142.978424,44.999813 142.666672,44.500000 142.500000,44.000000 
"/>
<path fill="none" opacity="1.000000" stroke="#000000" stroke-linecap="round" stroke-linejoin="round" stroke-width="3.000000"
	d="
M48.500000,42.500000 
	C47.553619,49.560940 46.939980,56.828068 49.653038,63.437176 
	C53.137394,71.925209 51.428238,80.494835 51.319099,88.997681 
	C51.259449,93.644997 51.348644,98.343735 50.962811,102.996918 
	C50.787113,105.115868 52.624649,105.692924 53.415947,107.059891 
	C57.816319,103.923836 56.161980,99.302109 55.849613,95.512398 
	C54.790497,82.662842 54.444782,70.010597 58.385204,57.463947 
	C59.885876,52.685673 59.294682,47.500000 58.500000,42.500000 
"/>
<path fill="none" opacity="1.000000" stroke="#000000" stroke-linecap="round" stroke-linejoin="round" stroke-width="2.000000"
	d="
M108.500000,94.500000 
	C113.961060,89.483452 118.264221,84.007446 118.581436,76.003227 
	C119.008324,65.231804 112.459740,54.621040 98.973969,52.680943 
	C88.145691,51.123154 78.585953,57.355259 75.031158,68.509926 
	C74.316994,70.750931 73.561317,73.056381 74.000000,75.500000 
"/>
<path fill="none" opacity="1.000000" stroke="#000000" stroke-linecap="round" stroke-linejoin="round" stroke-width="3.000000"
	d="
M51.500000,42.500000 
	C52.294682,47.500000 52.294682,52.500000 51.500000,57.500000 
"/>
<path fill="none" opacity="1.000000" stroke="#000000" stroke-linecap="round" stroke-linejoin="round" stroke-width="3.000000"
	d="
M54.500000,42.500000 
	C55.294682,47.500000 55.294682,52.500000 54.500000,57.500000 
"/>
<path fill="none" opacity="1.000000" stroke="#000000" stroke-linecap="round" stroke-linejoin="round" stroke-width="3.000000"
	d="
M94.000000,43.000000 
	C88.656647,44.543564 83.267776,45.454266 78.411171,48.873844 
	C67.005928,56.904385 63.150173,68.207642 65.272354,80.954659 
	C67.274437,92.980400 74.971657,101.755280 87.018906,105.438148 
	C108.978310,112.151207 129.373169,94.384445 127.919876,73.005447 
	C126.777481,56.200211 113.526413,42.899876 94.500000,43.000000 
"/>
</svg>